<svg width="33" height="26" viewBox="0 0 33 26" fill="none" xmlns="http://www.w3.org/2000/svg">
<path d="M12.7033 21.5917H20.83C21.3833 24.005 23.5017 25.8333 26.0783 25.8333C28.6533 25.8333 30.7733 24.0033 31.325 21.5883C31.6428 21.5692 31.9413 21.4296 32.1596 21.1979C32.378 20.9663 32.4997 20.66 32.5 20.3417V11.8567C32.5002 11.5304 32.3728 11.217 32.145 10.9833L27.9533 6.68667C27.5265 6.24899 27.0164 5.90113 26.4531 5.66356C25.8898 5.42598 25.2847 5.30351 24.6733 5.30333H22.1567V2.91667C22.1567 2.14312 21.8494 1.40125 21.3024 0.854272C20.7554 0.307291 20.0135 0 19.24 0H2.91667C2.14312 0 1.40125 0.307291 0.854272 0.854272C0.307291 1.40125 0 2.14312 0 2.91667V20.3417C0 21.0317 0.56 21.5917 1.25 21.5917H2.21C2.76333 24.005 4.88167 25.8333 7.45667 25.8333C10.0317 25.8333 12.1517 24.0067 12.7033 21.5917ZM4.57 20.34C4.57 18.6567 5.89167 17.3467 7.45667 17.3467C9.02333 17.3467 10.345 18.6567 10.345 20.3383C10.345 22.0217 9.02333 23.3317 7.45667 23.3317C5.89 23.3317 4.56833 22.0217 4.56833 20.3383M23.1883 20.3383C23.1883 18.655 24.51 17.345 26.0767 17.345C27.6417 17.345 28.9633 18.655 28.9633 20.3367C28.9633 22.02 27.6417 23.33 26.0767 23.33C24.51 23.33 23.1883 22.0217 23.1883 20.3383ZM12.3317 6.25V8.33333H14.415C14.7465 8.33333 15.0645 8.46503 15.2989 8.69945C15.5333 8.93387 15.665 9.25181 15.665 9.58333C15.665 9.91485 15.5333 10.2328 15.2989 10.4672C15.0645 10.7016 14.7465 10.8333 14.415 10.8333H12.3333V12.9167C12.3333 13.2482 12.2016 13.5661 11.9672 13.8006C11.7328 14.035 11.4149 14.1667 11.0833 14.1667C10.7518 14.1667 10.4339 14.035 10.1994 13.8006C9.96503 13.5661 9.83333 13.2482 9.83333 12.9167V10.8333H7.75C7.41848 10.8333 7.10054 10.7016 6.86612 10.4672C6.6317 10.2328 6.5 9.91485 6.5 9.58333C6.5 9.25181 6.6317 8.93387 6.86612 8.69945C7.10054 8.46503 7.41848 8.33333 7.75 8.33333H9.83333V6.25C9.83333 5.91848 9.96503 5.60054 10.1994 5.36612C10.4339 5.1317 10.7518 5 11.0833 5C11.4149 5 11.7328 5.1317 11.9672 5.36612C12.2016 5.60054 12.3317 5.91848 12.3317 6.25Z" fill="#1E1E1E" fill-opacity="0.7"/>
</svg>
