<svg width="28" height="30" viewBox="0 0 28 30" fill="none" xmlns="http://www.w3.org/2000/svg">
<path d="M0.666656 26.6666V11.6666C0.666656 11.1389 0.78499 10.6389 1.02166 10.1666C1.25832 9.69443 1.58443 9.30554 1.99999 8.99998L12 1.49998C12.5833 1.05554 13.25 0.833313 14 0.833313C14.75 0.833313 15.4167 1.05554 16 1.49998L26 8.99998C26.4167 9.30554 26.7433 9.69443 26.98 10.1666C27.2167 10.6389 27.3344 11.1389 27.3333 11.6666V26.6666C27.3333 27.5833 27.0067 28.3683 26.3533 29.0216C25.7 29.675 24.9155 30.0011 24 30H19C18.5278 30 18.1322 29.84 17.8133 29.52C17.4944 29.2 17.3344 28.8044 17.3333 28.3333V20C17.3333 19.5278 17.1733 19.1322 16.8533 18.8133C16.5333 18.4944 16.1378 18.3344 15.6667 18.3333H12.3333C11.8611 18.3333 11.4655 18.4933 11.1467 18.8133C10.8278 19.1333 10.6678 19.5289 10.6667 20V28.3333C10.6667 28.8055 10.5067 29.2016 10.1867 29.5216C9.86666 29.8416 9.4711 30.0011 8.99999 30H3.99999C3.08332 30 2.29888 29.6739 1.64666 29.0216C0.994434 28.3694 0.667768 27.5844 0.666656 26.6666Z" fill="#626262"/>
</svg>
