<svg width="24" height="30" viewBox="0 0 24 30" fill="none" xmlns="http://www.w3.org/2000/svg">
<path d="M12 29.7367C11.8489 29.7367 11.6895 29.7228 11.5217 29.695C11.3539 29.6672 11.1983 29.6256 11.055 29.57C7.7739 28.32 5.16668 26.2 3.23334 23.21C1.30001 20.22 0.333344 16.9834 0.333344 13.5V6.36169C0.333344 5.79502 0.497233 5.28224 0.82501 4.82335C1.15279 4.36447 1.57223 4.03113 2.08334 3.82335L11.0583 0.490021C11.3828 0.372243 11.6967 0.313354 12 0.313354C12.3033 0.313354 12.6178 0.372243 12.9433 0.490021L21.9167 3.82335C22.4278 4.03113 22.8472 4.36447 23.175 4.82335C23.5028 5.28224 23.6667 5.79502 23.6667 6.36169V13.5C23.6667 16.9834 22.7 20.22 20.7667 23.21C18.8333 26.2 16.2261 28.32 12.945 29.57C12.8006 29.6256 12.645 29.6672 12.4783 29.695C12.3117 29.7228 12.1522 29.7367 12 29.7367Z" fill="#1E1E1E" fill-opacity="0.7"/>
</svg>
