<svg width="32" height="32" viewBox="0 0 32 32" fill="none" xmlns="http://www.w3.org/2000/svg">
<path d="M29.952 1.95358C30.5711 2.57264 31.0622 3.30758 31.3972 4.11644C31.7323 4.9253 31.9047 5.79223 31.9047 6.66774C31.9047 7.54325 31.7323 8.41019 31.3972 9.21905C31.0622 10.0279 30.5711 10.7628 29.952 11.3819L16.2853 25.0486C15.2148 26.119 13.8117 26.7932 12.307 26.9602L6.67367 27.5836L2.84534 31.4169C2.69049 31.5717 2.50667 31.6944 2.30439 31.7781C2.10211 31.8618 1.88533 31.9048 1.66641 31.9047C1.4475 31.9047 1.23075 31.8615 1.02852 31.7776C0.826304 31.6938 0.642578 31.5709 0.487837 31.4161C0.333097 31.2612 0.210371 31.0774 0.126668 30.8751C0.0429642 30.6729 -7.72803e-05 30.4561 1.04162e-07 30.2372C7.74886e-05 30.0182 0.0432722 29.8015 0.127119 29.5993C0.210965 29.397 0.33382 29.2133 0.488671 29.0586L4.31867 25.2269L4.94367 19.5986C5.11114 18.0937 5.78593 16.6906 6.857 15.6202L20.5237 1.95358C21.1428 1.33423 21.8778 0.842929 22.6868 0.507728C23.4958 0.172528 24.363 0 25.2387 0C26.1144 0 26.9815 0.172528 27.7905 0.507728C28.5995 0.842929 29.3346 1.33423 29.9537 1.95358M14.632 17.2736L12.2737 19.6302L15.8087 23.1669L18.1653 20.8086L14.632 17.2736ZM19.347 12.5602L16.9887 14.9169L20.5253 18.4519L22.882 16.0952L19.347 12.5602ZM24.0603 7.84524L21.7037 10.2019L25.2387 13.7386L27.5937 11.3802L24.0603 7.84524Z" fill="#1E1E1E" fill-opacity="0.7"/>
</svg>
